<svg width="26" height="50" viewBox="0 0 26 50" fill="none" xmlns="http://www.w3.org/2000/svg">
<path d="M21.8051 0.816895C22.6253 0.878795 23.4455 0.940696 24.2579 1.01033C24.8228 1.05676 25.3876 1.11092 25.9679 1.16509V8.91039C25.7358 8.91039 25.5191 8.91039 25.3025 8.91039C23.6699 8.9336 22.0372 8.91039 20.4046 8.9955C18.3774 9.10383 17.2554 10.1794 17.1626 12.1989C17.0697 14.319 17.1394 16.4468 17.1394 18.6443H25.6739C25.2948 21.5768 24.9311 24.4242 24.5519 27.3258H17.1161V49.5249H8.16378V27.349H0.697021V18.6829H8.15604C8.15604 18.4353 8.15604 18.2574 8.15604 18.0717C8.16377 15.8046 8.10961 13.5297 8.20246 11.2703C8.31079 8.53899 9.12323 6.03202 11.0499 3.99704C12.5123 2.44178 14.3461 1.5597 16.412 1.1264C16.9691 1.01033 17.5262 0.925221 18.0833 0.83237C19.3213 0.83237 20.5594 0.83237 21.7974 0.83237L21.8051 0.816895Z" fill="#FFFFFB"/>
</svg>
