<svg width="51" height="51" viewBox="0 0 51 51" fill="none" xmlns="http://www.w3.org/2000/svg">
<path d="M19.5316 0.244554C23.6867 0.244554 27.8418 0.244554 31.9891 0.244554C32.2599 0.267767 32.5307 0.298717 32.8093 0.314192C34.8443 0.453469 36.8947 0.453468 38.9065 0.755234C44.7329 1.62184 48.6171 5.32814 49.9171 11.0617C50.3736 13.0657 50.451 15.1007 50.4974 17.1434C50.5129 17.7701 50.5515 18.3969 50.5825 19.0314V31.4889C50.5515 32.0692 50.5051 32.6495 50.4974 33.2298C50.4587 35.2725 50.389 37.3152 49.9016 39.3115C48.6558 44.4183 45.5918 47.8151 40.4772 49.2388C38.3803 49.8191 36.2293 49.9584 34.0705 49.9816C29.1881 50.0358 24.3057 50.0668 19.4233 50.0745C16.9241 50.0745 14.4248 50.0126 11.972 49.4864C6.46288 48.3181 2.9036 45.0606 1.5031 39.5514C0.845402 36.9671 0.775771 34.3208 0.760296 31.6746C0.729345 27.326 0.737076 22.9775 0.752551 18.6368C0.752551 16.2226 0.868618 13.8085 1.32513 11.4253C2.40839 5.84655 6.35455 1.89266 11.9333 0.801659C14.0457 0.391568 16.189 0.35288 18.3246 0.314192C18.7269 0.306455 19.1293 0.260029 19.5316 0.236816V0.244554ZM46.0096 24.4245C46.0096 24.4245 46.056 24.4245 46.0715 24.4245C46.0715 22.5907 46.1334 20.7568 46.056 18.923C45.9709 16.7256 45.9245 14.5049 45.584 12.3384C45.0346 8.81778 42.9765 6.45008 39.4791 5.53705C38.0631 5.16565 36.5852 4.91031 35.1228 4.84841C31.6873 4.70913 28.2519 4.70139 24.8164 4.67818C22.3326 4.6627 19.8489 4.69366 17.3728 4.74008C15.5545 4.77103 13.7439 4.84841 11.972 5.31266C9.05496 6.07094 7.04319 7.79642 6.08373 10.698C5.3564 12.9032 5.17844 15.1781 5.16296 17.4684C5.12427 22.7222 5.1088 27.9837 5.16296 33.2375C5.17844 34.816 5.3332 36.4177 5.6427 37.9729C6.42419 41.8572 8.76093 44.3255 12.7226 45.0219C14.3629 45.3082 16.0343 45.4706 17.6978 45.5016C22.4023 45.579 27.1067 45.6099 31.8111 45.5635C33.9777 45.5403 36.1597 45.4165 38.303 45.0992C42.1176 44.5421 44.671 42.1357 45.468 38.4449C45.7775 36.998 45.9554 35.4969 45.9941 34.0113C46.0715 30.8157 46.0173 27.6201 46.0173 24.4245H46.0096Z" fill="#FFFFFB"/>
<path d="M25.6907 12.3769C32.7705 12.4002 38.4576 18.095 38.4576 25.1594C38.4576 32.2393 32.7241 37.9573 25.6365 37.9341C18.5644 37.9109 12.8772 32.1929 12.9005 25.1285C12.9159 18.0563 18.6417 12.346 25.6907 12.3692V12.3769ZM33.9621 25.1826C33.9699 20.5865 30.3023 16.888 25.7061 16.8725C21.11 16.8493 17.396 20.5323 17.3805 25.113C17.365 29.7323 21.0559 33.4541 25.6597 33.4541C30.2558 33.4541 33.9544 29.7787 33.9621 25.1826Z" fill="#FFFFFB"/>
<path d="M41.9475 11.8741C41.9475 13.5454 40.6089 14.8608 38.9375 14.8531C37.3049 14.8376 35.9818 13.499 35.9895 11.8586C35.9895 10.1951 37.3359 8.87968 39.0072 8.89515C40.6553 8.91063 41.9552 10.226 41.9552 11.8819L41.9475 11.8741Z" fill="#FFFFFB"/>
</svg>
