<svg width="439" height="62" viewBox="0 0 439 62" fill="none" xmlns="http://www.w3.org/2000/svg">
<path d="M0.659424 61.5828V0H50.063V14.3624H21.1911V23.1809H45.3655V37.5433H21.1911V47.2082H51.2773V61.5828H0.659424Z" fill="#FFFFFB"/>
<path d="M56.3306 61.5828V0H76.85V47.2082H102.938V61.5828H56.3306Z" fill="#FFFFFB"/>
<path d="M132.165 61.5828V0H152.685V47.2082H178.772V61.5828H132.165Z" fill="#FFFFFB"/>
<path d="M307.114 61.5828H294.53L293.745 55.5116C290.347 59.4487 284.705 61.5828 274.869 61.5828C258.863 61.5828 244.513 53.0341 244.513 31.558C244.513 11.8848 257.036 0 277.297 0C292.347 0 304.44 7.70245 306.954 22.8375H287.477C285.993 17.7966 282.252 14.3746 276.954 14.3746C268.871 14.3746 265.045 20.6175 265.045 31.4844C265.045 40.2048 267.829 46.7053 278.18 46.7053C282.351 46.7053 287.661 44.8287 288.704 40.5605H279.665V27.719H307.126V61.5828H307.114Z" fill="#FFFFFB"/>
<path d="M182.17 61.5828L204.615 0H225.49L247.935 61.5828H227.489L225.049 53.4633H204.615L202.272 61.5828H182.182H182.17ZM214.869 18.557L208.515 40.6218H221.479L214.869 18.557Z" fill="#FFFFFB"/>
<path d="M311.456 61.5828L333.901 0H354.776L377.221 61.5828H356.787L354.347 53.4633H333.913L331.57 61.5828H311.48H311.456ZM344.154 18.557L337.801 40.6218H350.765L344.154 18.557Z" fill="#FFFFFB"/>
<path d="M401.886 40.1067V61.5705H381.367V0H409.981C430.169 0 436.817 5.55606 436.817 17.5267C436.817 24.6282 433.702 30.6136 426.637 32.576C433.027 34.9676 436.903 36.513 436.903 48.913C436.903 56.9466 439 61.5705 439 61.5705H418.885C418.383 60.1968 417.88 56.272 417.88 50.7896C417.88 42.7559 416.531 40.1067 407.283 40.1067H401.886ZM401.886 26.6029H410.3C416.445 26.6029 419.72 25.0698 419.72 20.7893C419.72 16.5088 416.359 14.3746 411.723 14.3746H401.886V26.6029Z" fill="#FFFFFB"/>
</svg>
