<svg width="342" height="48" viewBox="0 0 342 48" fill="none" xmlns="http://www.w3.org/2000/svg">
<path d="M0 48V0H38.5071V11.1946H16.0032V18.0681H34.8456V29.2627H16.0032V36.7959H39.4535V48H0Z" fill="#FDB913"/>
<path d="M43.3921 48V0H59.3857V36.7959H79.7195V48H43.3921Z" fill="#FDB913"/>
<path d="M102.501 48V0H118.494V36.7959H138.828V48H102.501Z" fill="#FFFFFB"/>
<path d="M238.862 48H229.054L228.442 43.2679C225.794 46.3366 221.396 48 213.729 48C201.254 48 190.069 41.3368 190.069 24.5975C190.069 9.26349 199.829 0 215.622 0C227.352 0 236.778 6.00359 238.738 17.8004H223.557C222.4 13.8713 219.485 11.2041 215.355 11.2041C209.055 11.2041 206.072 16.0701 206.072 24.5401C206.072 31.3372 208.242 36.4039 216.311 36.4039C219.561 36.4039 223.7 34.9412 224.513 31.6144H217.467V21.6053H238.872V48H238.862Z" fill="#FFFFFB"/>
<path d="M141.476 48L158.971 0H175.242L192.736 48H176.8L174.898 41.6714H158.971L157.145 48H141.486H141.476ZM166.963 14.4641L162.011 31.6622H172.116L166.963 14.4641Z" fill="#FFFFFB"/>
<path d="M242.247 48L259.741 0H276.012L293.506 48H277.58L275.677 41.6714H259.751L257.925 48H242.266H242.247ZM267.733 14.4641L262.781 31.6622H272.886L267.733 14.4641Z" fill="#FFFFFB"/>
<path d="M312.731 31.2607V47.9904H296.738V0H319.041C334.776 0 339.958 4.33061 339.958 13.661C339.958 19.1962 337.53 23.8614 332.023 25.391C337.004 27.2551 340.025 28.4597 340.025 38.1247C340.025 44.3864 341.66 47.9904 341.66 47.9904H325.981C325.589 46.9197 325.197 43.8606 325.197 39.5873C325.197 33.3256 324.146 31.2607 316.938 31.2607H312.731ZM312.731 20.7353H319.289C324.079 20.7353 326.631 19.5403 326.631 16.2039C326.631 12.8676 324.012 11.2041 320.398 11.2041H312.731V20.7353Z" fill="#FFFFFB"/>
</svg>
